<svg xmlns="http://www.w3.org/2000/svg" xmlns:xlink="http://www.w3.org/1999/xlink" version="1.1" width="15px" height="15px" viewBox="0 0 256 256" xml:space="preserve">

<defs>
</defs>
<g style="stroke: none; stroke-width: 0; stroke-dasharray: none; stroke-linecap: butt; stroke-linejoin: miter; stroke-miterlimit: 10; fill: none; fill-rule: nonzero; opacity: 1;" transform="translate(1.4065934065934016 1.4065934065934016) scale(2.81 2.81)" >
	<path d="M 77.474 17.28 L 61.526 1.332 C 60.668 0.473 59.525 0 58.311 0 H 15.742 c -2.508 0 -4.548 2.04 -4.548 4.548 v 80.904 c 0 2.508 2.04 4.548 4.548 4.548 h 58.516 c 2.508 0 4.549 -2.04 4.549 -4.548 V 20.496 C 78.807 19.281 78.333 18.138 77.474 17.28 z M 61.073 5.121 l 12.611 12.612 H 62.35 c -0.704 0 -1.276 -0.573 -1.276 -1.277 V 5.121 z M 15.742 3 h 42.332 v 13.456 c 0 2.358 1.918 4.277 4.276 4.277 h 13.457 v 33.2 H 14.194 V 4.548 C 14.194 3.694 14.888 3 15.742 3 z M 74.258 87 H 15.742 c -0.854 0 -1.548 -0.694 -1.548 -1.548 V 56.934 h 61.613 v 28.519 C 75.807 86.306 75.112 87 74.258 87 z" style="stroke: none; stroke-width: 1; stroke-dasharray: none; stroke-linecap: butt; stroke-linejoin: miter; stroke-miterlimit: 10; fill: rgb(0,0,0); fill-rule: nonzero; opacity: 1;" transform=" matrix(1 0 0 1 0 0) " stroke-linecap="round" />
	<path d="M 47.085 82.28 h -4.082 c -2.123 0 -3.85 -1.728 -3.85 -3.851 v -11.9 c 0 -2.123 1.727 -3.851 3.85 -3.851 h 4.082 c 2.123 0 3.851 1.728 3.851 3.851 v 11.9 C 50.936 80.553 49.208 82.28 47.085 82.28 z M 43.003 65.679 c -0.469 0 -0.85 0.382 -0.85 0.851 v 11.9 c 0 0.469 0.381 0.851 0.85 0.851 h 4.082 c 0.469 0 0.851 -0.382 0.851 -0.851 v -11.9 c 0 -0.469 -0.382 -0.851 -0.851 -0.851 H 43.003 z" style="stroke: none; stroke-width: 1; stroke-dasharray: none; stroke-linecap: butt; stroke-linejoin: miter; stroke-miterlimit: 10; fill: rgb(0,0,0); fill-rule: nonzero; opacity: 1;" transform=" matrix(1 0 0 1 0 0) " stroke-linecap="round" />
	<path d="M 31.02 82.28 h -5.653 c -0.829 0 -1.5 -0.672 -1.5 -1.5 V 64.179 c 0 -0.828 0.671 -1.5 1.5 -1.5 h 5.653 c 2.553 0 4.63 2.077 4.63 4.63 V 77.65 C 35.65 80.203 33.573 82.28 31.02 82.28 z M 26.867 79.28 h 4.153 c 0.899 0 1.63 -0.731 1.63 -1.63 V 67.309 c 0 -0.898 -0.731 -1.63 -1.63 -1.63 h -4.153 V 79.28 z" style="stroke: none; stroke-width: 1; stroke-dasharray: none; stroke-linecap: butt; stroke-linejoin: miter; stroke-miterlimit: 10; fill: rgb(0,0,0); fill-rule: nonzero; opacity: 1;" transform=" matrix(1 0 0 1 0 0) " stroke-linecap="round" />
	<path d="M 64.633 82.28 h -5.947 c -2.391 0 -4.336 -1.945 -4.336 -4.336 v -10.93 c 0 -2.391 1.945 -4.336 4.336 -4.336 h 5.947 c 0.828 0 1.5 0.672 1.5 1.5 s -0.672 1.5 -1.5 1.5 h -5.947 c -0.736 0 -1.336 0.6 -1.336 1.336 v 10.93 c 0 0.736 0.6 1.336 1.336 1.336 h 5.947 c 0.828 0 1.5 0.672 1.5 1.5 S 65.461 82.28 64.633 82.28 z" style="stroke: none; stroke-width: 1; stroke-dasharray: none; stroke-linecap: butt; stroke-linejoin: miter; stroke-miterlimit: 10; fill: rgb(0,0,0); fill-rule: nonzero; opacity: 1;" transform=" matrix(1 0 0 1 0 0) " stroke-linecap="round" />
</g>
</svg>