<svg xmlns="http://www.w3.org/2000/svg" xmlns:xlink="http://www.w3.org/1999/xlink" version="1.1" width="15px" height="15px" viewBox="0 0 256 256" xml:space="preserve">

<defs>
</defs>
<g style="stroke: none; stroke-width: 0; stroke-dasharray: none; stroke-linecap: butt; stroke-linejoin: miter; stroke-miterlimit: 10; fill: none; fill-rule: nonzero; opacity: 1;" transform="translate(1.4065934065934016 1.4065934065934016) scale(2.81 2.81)" >
	<path d="M 24.731 57.127 v -4.129 c 0 -0.444 -0.361 -0.806 -0.806 -0.806 H 20.05 v 5.74 h 3.876 C 24.37 57.933 24.731 57.571 24.731 57.127 z" style="stroke: none; stroke-width: 1; stroke-dasharray: none; stroke-linecap: butt; stroke-linejoin: miter; stroke-miterlimit: 10; fill: rgb(0,0,0); fill-rule: nonzero; opacity: 1;" transform=" matrix(1 0 0 1 0 0) " stroke-linecap="round" />
	<path d="M 39.841 63.508 V 53.286 c 0 -0.604 -0.491 -1.094 -1.094 -1.094 H 35.16 v 12.41 h 3.587 C 39.351 64.603 39.841 64.111 39.841 63.508 z" style="stroke: none; stroke-width: 1; stroke-dasharray: none; stroke-linecap: butt; stroke-linejoin: miter; stroke-miterlimit: 10; fill: rgb(0,0,0); fill-rule: nonzero; opacity: 1;" transform=" matrix(1 0 0 1 0 0) " stroke-linecap="round" />
	<path d="M 81.979 17.233 L 66.215 1.469 C 65.282 0.535 63.99 0 62.67 0 H 20.59 c -2.764 0 -5.013 2.249 -5.013 5.013 v 36.168 h -4.28 c -2.617 0 -4.745 2.084 -4.745 4.646 v 25.139 c 0 2.563 2.128 4.646 4.745 4.646 h 4.28 v 9.374 c 0 2.764 2.249 5.013 5.013 5.013 h 57.844 c 2.764 0 5.013 -2.249 5.013 -5.013 v -64.21 C 83.447 19.438 82.926 18.179 81.979 17.233 z M 18.05 68.603 c -1.104 0 -2 -0.896 -2 -2 v -6.67 v -9.74 c 0 -1.104 0.896 -2 2 -2 h 5.876 c 2.65 0 4.806 2.156 4.806 4.806 v 4.129 c 0 2.649 -2.156 4.806 -4.806 4.806 H 20.05 v 4.67 C 20.05 67.707 19.154 68.603 18.05 68.603 z M 79.447 84.987 c 0 0.559 -0.454 1.013 -1.013 1.013 H 20.59 c -0.559 0 -1.013 -0.454 -1.013 -1.013 v -9.374 h 44.425 c 2.616 0 4.745 -2.084 4.745 -4.646 V 45.828 c 0 -2.562 -2.129 -4.646 -4.745 -4.646 H 19.578 V 5.013 C 19.578 4.454 20.032 4 20.59 4 h 41.328 v 12.784 c 0 2.617 2.129 4.745 4.745 4.745 h 12.784 V 84.987 z M 31.16 66.603 v -16.41 c 0 -1.104 0.896 -2 2 -2 h 5.587 c 2.809 0 5.094 2.285 5.094 5.094 v 10.222 c 0 2.81 -2.285 5.095 -5.094 5.095 H 33.16 C 32.055 68.603 31.16 67.707 31.16 66.603 z M 54.255 56.397 c 1.104 0 2 0.896 2 2 s -0.896 2 -2 2 h -3.686 v 6.205 c 0 1.104 -0.896 2 -2 2 s -2 -0.896 -2 -2 v -16.41 c 0 -1.104 0.896 -2 2 -2 h 8.682 c 1.104 0 2 0.896 2 2 s -0.896 2 -2 2 h -6.682 v 4.205 H 54.255 z" style="stroke: none; stroke-width: 1; stroke-dasharray: none; stroke-linecap: butt; stroke-linejoin: miter; stroke-miterlimit: 10; fill: rgb(0,0,0); fill-rule: nonzero; opacity: 1;" transform=" matrix(1 0 0 1 0 0) " stroke-linecap="round" />
</g>
</svg>
