<svg xmlns="http://www.w3.org/2000/svg" xmlns:xlink="http://www.w3.org/1999/xlink" version="1.1" width="15px" height="15px" viewBox="0 0 256 256" xml:space="preserve">

<defs>
</defs>
<g style="stroke: none; stroke-width: 0; stroke-dasharray: none; stroke-linecap: butt; stroke-linejoin: miter; stroke-miterlimit: 10; fill: none; fill-rule: nonzero; opacity: 1;" transform="translate(1.4065934065934016 1.4065934065934016) scale(2.81 2.81)" >
	<path d="M 77.474 17.28 L 61.526 1.332 C 60.668 0.473 59.525 0 58.311 0 H 15.742 c -2.508 0 -4.548 2.04 -4.548 4.548 v 80.904 c 0 2.508 2.04 4.548 4.548 4.548 h 58.516 c 2.508 0 4.549 -2.04 4.549 -4.548 V 20.496 C 78.807 19.281 78.333 18.138 77.474 17.28 z M 61.073 5.121 l 12.611 12.612 H 62.35 c -0.704 0 -1.276 -0.573 -1.276 -1.277 V 5.121 z M 15.742 3 h 42.332 v 13.456 c 0 2.358 1.918 4.277 4.276 4.277 h 13.457 v 33.2 H 14.194 V 4.548 C 14.194 3.694 14.888 3 15.742 3 z M 74.258 87 H 15.742 c -0.854 0 -1.548 -0.694 -1.548 -1.548 V 56.934 h 61.613 v 28.519 C 75.807 86.306 75.112 87 74.258 87 z" style="stroke: none; stroke-width: 1; stroke-dasharray: none; stroke-linecap: butt; stroke-linejoin: miter; stroke-miterlimit: 10; fill: rgb(0,0,0); fill-rule: nonzero; opacity: 1;" transform=" matrix(1 0 0 1 0 0) " stroke-linecap="round" />
	<path d="M 34.604 62.687 h -8.816 c -0.829 0 -1.5 0.672 -1.5 1.5 s 0.671 1.5 1.5 1.5 h 2.908 v 15.164 c 0 0.828 0.671 1.5 1.5 1.5 s 1.5 -0.672 1.5 -1.5 V 65.687 h 2.908 c 0.829 0 1.5 -0.672 1.5 -1.5 S 35.432 62.687 34.604 62.687 z" style="stroke: none; stroke-width: 1; stroke-dasharray: none; stroke-linecap: butt; stroke-linejoin: miter; stroke-miterlimit: 10; fill: rgb(0,0,0); fill-rule: nonzero; opacity: 1;" transform=" matrix(1 0 0 1 0 0) " stroke-linecap="round" />
	<path d="M 46.69 72.519 l 4.021 -7.599 c 0.387 -0.731 0.107 -1.64 -0.625 -2.027 c -0.729 -0.385 -1.639 -0.107 -2.027 0.625 l -3.065 5.794 l -3.066 -5.794 c -0.388 -0.732 -1.294 -1.012 -2.027 -0.625 c -0.732 0.388 -1.012 1.296 -0.624 2.027 l 4.02 7.599 l -4.02 7.599 c -0.388 0.731 -0.108 1.64 0.624 2.027 c 0.224 0.118 0.464 0.174 0.7 0.174 c 0.538 0 1.058 -0.29 1.327 -0.799 l 3.066 -5.794 l 3.065 5.794 c 0.27 0.509 0.789 0.799 1.327 0.799 c 0.237 0 0.477 -0.056 0.7 -0.174 c 0.732 -0.388 1.012 -1.296 0.625 -2.027 L 46.69 72.519 z" style="stroke: none; stroke-width: 1; stroke-dasharray: none; stroke-linecap: butt; stroke-linejoin: miter; stroke-miterlimit: 10; fill: rgb(0,0,0); fill-rule: nonzero; opacity: 1;" transform=" matrix(1 0 0 1 0 0) " stroke-linecap="round" />
	<path d="M 64.212 62.687 h -8.815 c -0.828 0 -1.5 0.672 -1.5 1.5 s 0.672 1.5 1.5 1.5 h 2.908 v 15.164 c 0 0.828 0.672 1.5 1.5 1.5 s 1.5 -0.672 1.5 -1.5 V 65.687 h 2.907 c 0.828 0 1.5 -0.672 1.5 -1.5 S 65.04 62.687 64.212 62.687 z" style="stroke: none; stroke-width: 1; stroke-dasharray: none; stroke-linecap: butt; stroke-linejoin: miter; stroke-miterlimit: 10; fill: rgb(0,0,0); fill-rule: nonzero; opacity: 1;" transform=" matrix(1 0 0 1 0 0) " stroke-linecap="round" />
</g>
</svg>