<svg xmlns="http://www.w3.org/2000/svg" xmlns:xlink="http://www.w3.org/1999/xlink" version="1.1" width="15px" height="15px" viewBox="0 0 256 256" xml:space="preserve">

<defs>
</defs>
<g style="stroke: none; stroke-width: 0; stroke-dasharray: none; stroke-linecap: butt; stroke-linejoin: miter; stroke-miterlimit: 10; fill: none; fill-rule: nonzero; opacity: 1;" transform="translate(1.4065934065934016 1.4065934065934016) scale(2.81 2.81)" >
	<path d="M 77.474 17.28 L 61.526 1.332 C 60.668 0.473 59.525 0 58.311 0 H 15.742 c -2.508 0 -4.548 2.04 -4.548 4.548 v 80.904 c 0 2.508 2.04 4.548 4.548 4.548 h 58.516 c 2.508 0 4.549 -2.04 4.549 -4.548 V 20.496 C 78.807 19.281 78.333 18.138 77.474 17.28 z M 61.073 5.121 l 12.611 12.612 H 62.35 c -0.704 0 -1.276 -0.573 -1.276 -1.277 V 5.121 z M 15.742 3 h 42.332 v 13.456 c 0 2.358 1.918 4.277 4.276 4.277 h 13.457 v 33.2 H 14.194 V 4.548 C 14.194 3.694 14.888 3 15.742 3 z M 74.258 87 H 15.742 c -0.854 0 -1.548 -0.694 -1.548 -1.548 V 56.934 h 61.613 v 28.519 C 75.807 86.306 75.112 87 74.258 87 z" style="stroke: none; stroke-width: 1; stroke-dasharray: none; stroke-linecap: butt; stroke-linejoin: miter; stroke-miterlimit: 10; fill: rgb(0,0,0); fill-rule: nonzero; opacity: 1;" transform=" matrix(1 0 0 1 0 0) " stroke-linecap="round" />
	<path d="M 46.58 62.719 h -5.944 c -0.829 0 -1.5 0.672 -1.5 1.5 v 9.854 v 6.747 c 0 0.828 0.671 1.5 1.5 1.5 s 1.5 -0.672 1.5 -1.5 v -5.247 h 4.444 c 2.392 0 4.338 -1.946 4.338 -4.339 v -4.177 C 50.918 64.665 48.972 62.719 46.58 62.719 z M 47.918 71.233 c 0 0.738 -0.601 1.339 -1.338 1.339 h -4.444 v -6.854 h 4.444 c 0.737 0 1.338 0.601 1.338 1.338 V 71.233 z" style="stroke: none; stroke-width: 1; stroke-dasharray: none; stroke-linecap: butt; stroke-linejoin: miter; stroke-miterlimit: 10; fill: rgb(0,0,0); fill-rule: nonzero; opacity: 1;" transform=" matrix(1 0 0 1 0 0) " stroke-linecap="round" />
	<path d="M 31.782 82.319 H 27.7 c -2.123 0 -3.85 -1.728 -3.85 -3.851 v -2.526 c 0 -0.828 0.671 -1.5 1.5 -1.5 s 1.5 0.672 1.5 1.5 v 2.526 c 0 0.469 0.381 0.851 0.85 0.851 h 4.082 c 0.469 0 0.851 -0.382 0.851 -0.851 v -14.25 c 0 -0.828 0.671 -1.5 1.5 -1.5 s 1.5 0.672 1.5 1.5 v 14.25 C 35.633 80.592 33.905 82.319 31.782 82.319 z" style="stroke: none; stroke-width: 1; stroke-dasharray: none; stroke-linecap: butt; stroke-linejoin: miter; stroke-miterlimit: 10; fill: rgb(0,0,0); fill-rule: nonzero; opacity: 1;" transform=" matrix(1 0 0 1 0 0) " stroke-linecap="round" />
	<path d="M 62.555 82.351 H 56.73 c -1.982 0 -3.595 -1.612 -3.595 -3.595 V 66.305 c 0 -1.974 1.605 -3.586 3.579 -3.595 l 5.482 -0.023 c 0.003 0 0.005 0 0.007 0 c 0.825 0 1.496 0.667 1.5 1.493 c 0.004 0.829 -0.665 1.503 -1.493 1.507 l -5.482 0.023 c -0.327 0.001 -0.593 0.269 -0.593 0.595 v 12.451 c 0 0.328 0.267 0.595 0.595 0.595 h 5.824 c 0.328 0 0.596 -0.267 0.596 -0.595 v -5.099 c 0 -0.328 -0.268 -0.595 -0.596 -0.595 h -2.386 c -0.828 0 -1.5 -0.672 -1.5 -1.5 s 0.672 -1.5 1.5 -1.5 h 2.386 c 1.982 0 3.596 1.612 3.596 3.595 v 5.099 C 66.15 80.738 64.537 82.351 62.555 82.351 z" style="stroke: none; stroke-width: 1; stroke-dasharray: none; stroke-linecap: butt; stroke-linejoin: miter; stroke-miterlimit: 10; fill: rgb(0,0,0); fill-rule: nonzero; opacity: 1;" transform=" matrix(1 0 0 1 0 0) " stroke-linecap="round" />
</g>
</svg>